<svg xmlns="http://www.w3.org/2000/svg" viewBox="0 0 64 64" role="img" aria-label="Andy's Coffee House">
  <rect width="64" height="64" rx="14" fill="#c8202e"/>
  <!-- steam -->
  <g fill="none" stroke="#f7ecd9" stroke-width="2.4" stroke-linecap="round" opacity=".9">
    <path d="M26 15c-2 2-2 4 0 6s2 4 0 6"/>
    <path d="M34 13c-2 2-2 4 0 6s2 4 0 6"/>
  </g>
  <!-- cup -->
  <path d="M16 33h27v6a11 11 0 0 1-11 11H27a11 11 0 0 1-11-11z" fill="#f7ecd9"/>
  <path d="M43 35h4a5 5 0 0 1 0 10h-4" fill="none" stroke="#f7ecd9" stroke-width="3.2"/>
  <!-- saucer -->
  <rect x="12" y="52" width="35" height="4" rx="2" fill="#e0a93a"/>
</svg>
